<?xml version="1.0" encoding="UTF-8" standalone="no"?>
<!DOCTYPE svg PUBLIC "-//W3C//DTD SVG 1.0//EN" "http://www.w3.org/TR/2001/PR-SVG-20010719/DTD/svg10.dtd">
<svg width="29cm" height="17cm" viewBox="267 -62 563 339" xmlns="http://www.w3.org/2000/svg" xmlns:xlink="http://www.w3.org/1999/xlink">
  <g id="Background">
    <g>
      <polygon style="fill: #ffffff; fill-opacity: 1; stroke-opacity: 1; stroke-width: 2; stroke: #000000" fill-rule="evenodd" points="424.872,-60 495,-60 473.162,3.55271e-14 403.034,3.55271e-14 "/>
      <text font-size="12.7998" style="fill: #000000; fill-opacity: 1; stroke: none;text-anchor:middle;font-family:sans-serif;font-style:normal;font-weight:normal" x="449.017" y="-26.1">
        <tspan x="449.017" y="-26.1">Field</tspan>
      </text>
    </g>
    <g>
      <line style="fill: none; stroke-opacity: 1; stroke-width: 2; stroke: #000000" x1="480.798" y1="-19.2424" x2="590.788" y2="17.9878"/>
      <polygon style="fill: #000000; fill-opacity: 1; stroke-opacity: 1; stroke-width: 2; stroke: #000000" fill-rule="evenodd" points="597.892,20.3924 586.817,21.9223 590.788,17.9878 590.023,12.4502 "/>
    </g>
    <g>
      <rect style="fill: #ffffff; fill-opacity: 1; stroke-opacity: 1; stroke-width: 2; stroke: #000000" x="601" y="16" width="151" height="62" rx="0" ry="0"/>
      <line style="fill: none; stroke-opacity: 1; stroke-width: 2; stroke: #000000" x1="616.1" y1="16" x2="616.1" y2="78"/>
      <line style="fill: none; stroke-opacity: 1; stroke-width: 2; stroke: #000000" x1="736.9" y1="16" x2="736.9" y2="78"/>
      <text font-size="12.7998" style="fill: #000000; fill-opacity: 1; stroke: none;text-anchor:middle;font-family:sans-serif;font-style:normal;font-weight:normal" x="676.5" y="43">
        <tspan x="676.5" y="43">EdFusion</tspan>
        <tspan x="676.5" y="59">Web Interface</tspan>
      </text>
    </g>
    <g>
      <path style="fill: #ffffff; fill-opacity: 1; stroke-opacity: 1; stroke-width: 2; stroke: #000000" fill-rule="evenodd" d="M 698.691 147 L 805.615,147 C 821.654,162.2 827,169.8 827,185 C 827,200.2 821.654,207.8 805.615,223 L 698.691,223 C 682.652,207.8 677.306,200.2 677.306,185 C 677.306,169.8 682.652,162.2 698.691,147z"/>
      <path style="fill: none; stroke-opacity: 1; stroke-width: 2; stroke: #000000" d="M 805.615 147 C 789.577,162.2 784.23,169.8 784.23,185 C 784.23,200.2 789.577,207.8 805.615,223"/>
      <text font-size="12.7998" style="fill: #000000; fill-opacity: 1; stroke: none;text-anchor:middle;font-family:sans-serif;font-style:normal;font-weight:normal" x="741.461" y="181">
        <tspan x="741.461" y="181">Edfusion</tspan>
        <tspan x="741.461" y="197">Data Base</tspan>
      </text>
    </g>
    <g>
      <line style="fill: none; stroke-opacity: 1; stroke-width: 2; stroke: #000000" x1="632.665" y1="78.8384" x2="523.184" y2="158.356"/>
      <polygon style="fill: #000000; fill-opacity: 1; stroke-opacity: 1; stroke-width: 2; stroke: #000000" fill-rule="evenodd" points="517.115,162.764 522.268,152.841 523.184,158.356 528.145,160.932 "/>
    </g>
    <g>
      <path style="fill: #ffffff; fill-opacity: 1; stroke-opacity: 1; stroke-width: 2; stroke: #000000" fill-rule="evenodd" d="M 359 208.4 L 519,164 L 519,275 L 359,275 L 359,208.4z"/>
      <text font-size="12.7998" style="fill: #000000; fill-opacity: 1; stroke: none;text-anchor:middle;font-family:sans-serif;font-style:normal;font-weight:normal" x="439" y="245.7">
        <tspan x="439" y="245.7">AOE Staff</tspan>
      </text>
    </g>
    <g>
      <line style="fill: none; stroke-opacity: 1; stroke-width: 2; stroke: #000000" x1="684.656" y1="90.1058" x2="730.35" y2="138.891"/>
      <polygon style="fill: #000000; fill-opacity: 1; stroke-opacity: 1; stroke-width: 2; stroke: #000000" fill-rule="evenodd" points="679.529,84.632 690.014,88.5124 684.656,90.1058 682.715,95.3485 "/>
      <polygon style="fill: #000000; fill-opacity: 1; stroke-opacity: 1; stroke-width: 2; stroke: #000000" fill-rule="evenodd" points="735.477,144.365 724.992,140.484 730.35,138.891 732.29,133.648 "/>
    </g>
    <g>
      <path style="fill: #ffffff; fill-opacity: 1; stroke-opacity: 1; stroke-width: 2; stroke: #000000" fill-rule="evenodd" d="M 269 54 L 398,54 L 398,141.111 C 372.2,126.593 359.3,126.593 333.5,141.111 C 307.7,155.63 294.8,155.63 269,141.111 L 269,54z"/>
      <text font-size="12.7998" style="fill: #000000; fill-opacity: 1; stroke: none;text-anchor:middle;font-family:sans-serif;font-style:normal;font-weight:normal" x="333.5" y="94.2963">
        <tspan x="333.5" y="94.2963">Error Reports</tspan>
      </text>
    </g>
    <g>
      <line style="fill: none; stroke-opacity: 1; stroke-width: 2; stroke: #000000" x1="413.848" y1="192.159" x2="365.089" y2="139.154"/>
      <polygon style="fill: #000000; fill-opacity: 1; stroke-opacity: 1; stroke-width: 2; stroke: #000000" fill-rule="evenodd" points="360.011,133.634 370.461,137.608 365.089,139.154 363.101,144.379 "/>
    </g>
    <g>
      <line style="fill: none; stroke-opacity: 1; stroke-width: 2; stroke-dasharray: 20; stroke: #000000" x1="519.99" y1="211.148" x2="667.672" y2="195.918"/>
      <polygon style="fill: #000000; fill-opacity: 1; stroke-opacity: 1; stroke-width: 2; stroke: #000000" fill-rule="evenodd" points="675.132,195.148 665.698,201.148 667.672,195.918 664.672,191.201 "/>
    </g>
    <text font-size="12.7998" style="fill: #000000; fill-opacity: 1; stroke: none;text-anchor:start;font-family:sans-serif;font-style:normal;font-weight:normal" x="550" y="194">
      <tspan x="550" y="194">In The Future...</tspan>
    </text>
    <g>
      <line style="fill: none; stroke-opacity: 1; stroke-width: 2; stroke: #000000" x1="377.898" y1="53.0003" x2="416.144" y2="8.36508"/>
      <polygon style="fill: #000000; fill-opacity: 1; stroke-opacity: 1; stroke-width: 2; stroke: #000000" fill-rule="evenodd" points="421.024,2.66985 418.314,13.5168 416.144,8.36508 410.72,7.01016 "/>
    </g>
  </g>
</svg>
