<?xml version="1.0" encoding="UTF-8" standalone="no"?>
<!DOCTYPE svg PUBLIC "-//W3C//DTD SVG 1.0//EN" "http://www.w3.org/TR/2001/PR-SVG-20010719/DTD/svg10.dtd">
<svg width="32cm" height="18cm" viewBox="196 -65 633 342" xmlns="http://www.w3.org/2000/svg" xmlns:xlink="http://www.w3.org/1999/xlink">
  <g id="Background">
    <g>
      <polygon style="fill: #ffffff; fill-opacity: 1; stroke-opacity: 1; stroke-width: 2; stroke: #000000" fill-rule="evenodd" points="424.872,-60 495,-60 473.162,7.10543e-14 403.034,7.10543e-14 "/>
      <text font-size="12.8" style="fill: #000000; fill-opacity: 1; stroke: none;text-anchor:middle;font-family:sans-serif;font-style:normal;font-weight:normal" x="449.017" y="-26.1">
        <tspan x="449.017" y="-26.1">Field</tspan>
      </text>
    </g>
    <g>
      <line style="fill: none; stroke-opacity: 1; stroke-width: 2; stroke: #000000" x1="480.799" y1="-19.2424" x2="590.788" y2="17.9878"/>
      <polygon style="fill: #000000; fill-opacity: 1; stroke-opacity: 1; stroke-width: 2; stroke: #000000" fill-rule="evenodd" points="597.893,20.3924 586.817,21.9223 590.788,17.9878 590.024,12.4502 "/>
    </g>
    <g>
      <rect style="fill: #ffffff; fill-opacity: 1; stroke-opacity: 1; stroke-width: 2; stroke: #000000" x="601" y="16" width="151" height="62" rx="0" ry="0"/>
      <line style="fill: none; stroke-opacity: 1; stroke-width: 2; stroke: #000000" x1="616.1" y1="16" x2="616.1" y2="78"/>
      <line style="fill: none; stroke-opacity: 1; stroke-width: 2; stroke: #000000" x1="736.9" y1="16" x2="736.9" y2="78"/>
      <text font-size="12.8" style="fill: #000000; fill-opacity: 1; stroke: none;text-anchor:middle;font-family:sans-serif;font-style:normal;font-weight:normal" x="676.5" y="43">
        <tspan x="676.5" y="43">EdFusion</tspan>
        <tspan x="676.5" y="59">Web Interface</tspan>
      </text>
    </g>
    <g>
      <path style="fill: #ffffff; fill-opacity: 1; stroke-opacity: 1; stroke-width: 2; stroke: #000000" fill-rule="evenodd" d="M 698.691 147 L 805.615,147 C 821.654,162.2 827,169.8 827,185 C 827,200.2 821.654,207.8 805.615,223 L 698.691,223 C 682.652,207.8 677.306,200.2 677.306,185 C 677.306,169.8 682.652,162.2 698.691,147z"/>
      <path style="fill: none; stroke-opacity: 1; stroke-width: 2; stroke: #000000" d="M 805.615 147 C 789.576,162.2 784.23,169.8 784.23,185 C 784.23,200.2 789.576,207.8 805.615,223"/>
      <text font-size="12.8" style="fill: #000000; fill-opacity: 1; stroke: none;text-anchor:middle;font-family:sans-serif;font-style:normal;font-weight:normal" x="741.46" y="181">
        <tspan x="741.46" y="181">Edfusion</tspan>
        <tspan x="741.46" y="197">Data Base</tspan>
      </text>
    </g>
    <g>
      <line style="fill: none; stroke-opacity: 1; stroke-width: 2; stroke: #000000" x1="632.665" y1="78.8384" x2="523.184" y2="158.356"/>
      <polygon style="fill: #000000; fill-opacity: 1; stroke-opacity: 1; stroke-width: 2; stroke: #000000" fill-rule="evenodd" points="517.115,162.764 522.268,152.841 523.184,158.356 528.145,160.932 "/>
    </g>
    <g>
      <path style="fill: #ffffff; fill-opacity: 1; stroke-opacity: 1; stroke-width: 2; stroke: #000000" fill-rule="evenodd" d="M 359 208.4 L 519,164 L 519,275 L 359,275 L 359,208.4z"/>
      <text font-size="12.8" style="fill: #000000; fill-opacity: 1; stroke: none;text-anchor:middle;font-family:sans-serif;font-style:normal;font-weight:normal" x="439" y="245.7">
        <tspan x="439" y="245.7">AOE Staff</tspan>
      </text>
    </g>
    <g>
      <line style="fill: none; stroke-opacity: 1; stroke-width: 2; stroke: #000000" x1="684.656" y1="90.1059" x2="730.35" y2="138.891"/>
      <polygon style="fill: #000000; fill-opacity: 1; stroke-opacity: 1; stroke-width: 2; stroke: #000000" fill-rule="evenodd" points="679.529,84.632 690.014,88.5124 684.656,90.1059 682.715,95.3485 "/>
      <polygon style="fill: #000000; fill-opacity: 1; stroke-opacity: 1; stroke-width: 2; stroke: #000000" fill-rule="evenodd" points="735.477,144.365 724.992,140.484 730.35,138.891 732.29,133.648 "/>
    </g>
    <g>
      <path style="fill: #ffffff; fill-opacity: 1; stroke-opacity: 1; stroke-width: 2; stroke: #000000" fill-rule="evenodd" d="M 269 54 L 398,54 L 398,141.111 C 372.2,126.593 359.3,126.593 333.5,141.111 C 307.7,155.63 294.8,155.63 269,141.111 L 269,54z"/>
      <text font-size="12.8" style="fill: #000000; fill-opacity: 1; stroke: none;text-anchor:middle;font-family:sans-serif;font-style:normal;font-weight:normal" x="333.5" y="94.2963">
        <tspan x="333.5" y="94.2963">Error Reports</tspan>
      </text>
    </g>
    <g>
      <line style="fill: none; stroke-opacity: 1; stroke-width: 2; stroke: #000000" x1="413.848" y1="192.159" x2="365.089" y2="139.154"/>
      <polygon style="fill: #000000; fill-opacity: 1; stroke-opacity: 1; stroke-width: 2; stroke: #000000" fill-rule="evenodd" points="360.011,133.634 370.461,137.608 365.089,139.154 363.101,144.379 "/>
    </g>
    <g>
      <line style="fill: none; stroke-opacity: 1; stroke-width: 2; stroke-dasharray: 20; stroke: #000000" x1="519.99" y1="211.148" x2="667.671" y2="195.918"/>
      <polygon style="fill: #000000; fill-opacity: 1; stroke-opacity: 1; stroke-width: 2; stroke: #000000" fill-rule="evenodd" points="675.132,195.148 665.697,201.148 667.671,195.918 664.672,191.201 "/>
    </g>
    <text font-size="12.8" style="fill: #000000; fill-opacity: 1; stroke: none;text-anchor:start;font-family:sans-serif;font-style:normal;font-weight:normal" x="550" y="194">
      <tspan x="550" y="194">In The Future...</tspan>
    </text>
    <g>
      <line style="fill: none; stroke-opacity: 1; stroke-width: 2; stroke: #000000" x1="377.898" y1="53.0003" x2="416.144" y2="8.36508"/>
      <polygon style="fill: #000000; fill-opacity: 1; stroke-opacity: 1; stroke-width: 2; stroke: #000000" fill-rule="evenodd" points="421.024,2.66985 418.314,13.5168 416.144,8.36508 410.72,7.01015 "/>
    </g>
    <g>
      <path style="fill: #ffffff; fill-opacity: 1; stroke-opacity: 1; stroke-width: 2; stroke: #000000" fill-rule="evenodd" d="M 260.3 36.8 L 389.3,36.8 L 389.3,123.911 C 363.5,109.393 350.6,109.393 324.8,123.911 C 299,138.43 286.1,138.43 260.3,123.911 L 260.3,36.8z"/>
      <text font-size="12.8" style="fill: #000000; fill-opacity: 1; stroke: none;text-anchor:middle;font-family:sans-serif;font-style:normal;font-weight:normal" x="324.8" y="77.0963">
        <tspan x="324.8" y="77.0963">Error Reports</tspan>
      </text>
    </g>
    <g>
      <path style="fill: #ffffff; fill-opacity: 1; stroke-opacity: 1; stroke-width: 2; stroke: #000000" fill-rule="evenodd" d="M 249.6 19.6 L 378.6,19.6 L 378.6,106.711 C 352.8,92.1926 339.9,92.1926 314.1,106.711 C 288.3,121.23 275.4,121.23 249.6,106.711 L 249.6,19.6z"/>
      <text font-size="12.8" style="fill: #000000; fill-opacity: 1; stroke: none;text-anchor:middle;font-family:sans-serif;font-style:normal;font-weight:normal" x="314.1" y="59.8963">
        <tspan x="314.1" y="59.8963">Error Reports</tspan>
      </text>
    </g>
    <g>
      <path style="fill: #ffffff; fill-opacity: 1; stroke-opacity: 1; stroke-width: 2; stroke: #000000" fill-rule="evenodd" d="M 238.9 3.4 L 367.9,3.4 L 367.9,90.5111 C 342.1,75.9926 329.2,75.9926 303.4,90.5111 C 277.6,105.03 264.7,105.03 238.9,90.5111 L 238.9,3.4z"/>
      <text font-size="12.8" style="fill: #000000; fill-opacity: 1; stroke: none;text-anchor:middle;font-family:sans-serif;font-style:normal;font-weight:normal" x="303.4" y="43.6963">
        <tspan x="303.4" y="43.6963">Error Reports</tspan>
      </text>
    </g>
    <g>
      <path style="fill: #ffffff; fill-opacity: 1; stroke-opacity: 1; stroke-width: 2; stroke: #000000" fill-rule="evenodd" d="M 228.4 -11.6 L 357.4,-11.6 L 357.4,75.5111 C 331.6,60.9926 318.7,60.9926 292.9,75.5111 C 267.1,90.0296 254.2,90.0296 228.4,75.5111 L 228.4,-11.6z"/>
      <text font-size="12.8" style="fill: #000000; fill-opacity: 1; stroke: none;text-anchor:middle;font-family:sans-serif;font-style:normal;font-weight:normal" x="292.9" y="28.6963">
        <tspan x="292.9" y="28.6963">Error Reports</tspan>
      </text>
    </g>
    <g>
      <path style="fill: #ffffff; fill-opacity: 1; stroke-opacity: 1; stroke-width: 2; stroke: #000000" fill-rule="evenodd" d="M 219.7 -28.8 L 348.7,-28.8 L 348.7,58.3111 C 322.9,43.7926 310,43.7926 284.2,58.3111 C 258.4,72.8296 245.5,72.8296 219.7,58.3111 L 219.7,-28.8z"/>
      <text font-size="12.8" style="fill: #000000; fill-opacity: 1; stroke: none;text-anchor:middle;font-family:sans-serif;font-style:normal;font-weight:normal" x="284.2" y="11.4963">
        <tspan x="284.2" y="11.4963">Error Reports</tspan>
      </text>
    </g>
    <g>
      <path style="fill: #ffffff; fill-opacity: 1; stroke-opacity: 1; stroke-width: 2; stroke: #000000" fill-rule="evenodd" d="M 209 -46 L 338,-46 L 338,41.1111 C 312.2,26.5926 299.3,26.5926 273.5,41.1111 C 247.7,55.6296 234.8,55.6296 209,41.1111 L 209,-46z"/>
      <text font-size="12.8" style="fill: #000000; fill-opacity: 1; stroke: none;text-anchor:middle;font-family:sans-serif;font-style:normal;font-weight:normal" x="273.5" y="-5.7037">
        <tspan x="273.5" y="-5.7037">Error Reports</tspan>
      </text>
    </g>
    <g>
      <path style="fill: #ffffff; fill-opacity: 1; stroke-opacity: 1; stroke-width: 2; stroke: #000000" fill-rule="evenodd" d="M 198.3 -62.2 L 327.3,-62.2 L 327.3,24.9111 C 301.5,10.3926 288.6,10.3926 262.8,24.9111 C 237,39.4296 224.1,39.4296 198.3,24.9111 L 198.3,-62.2z"/>
      <text font-size="12.8" style="fill: #000000; fill-opacity: 1; stroke: none;text-anchor:middle;font-family:sans-serif;font-style:normal;font-weight:normal" x="262.8" y="-21.9037">
        <tspan x="262.8" y="-21.9037">Error Reports</tspan>
      </text>
    </g>
    <text font-size="31.044" style="fill: #000000; fill-opacity: 1; stroke: none;text-anchor:start;font-family:sans-serif;font-style:normal;font-weight:normal" x="363" y="186">
      <tspan x="363" y="186">?</tspan>
    </text>
  </g>
</svg>
